<svg xmlns="http://www.w3.org/2000/svg" xmlns:xlink="http://www.w3.org/1999/xlink" xmlns:xodm="http://www.corel.com/coreldraw/odm/2003" width="238" height="254" version="1.1" xml:space="preserve" style="shape-rendering:geometricPrecision;text-rendering:geometricPrecision;image-rendering:optimizeQuality;fill-rule:evenodd;clip-rule:evenodd" viewBox="0 0 145.97 155.94"><defs><style type="text/css">.str0{stroke:#232323;stroke-width:3.63;stroke-miterlimit:16.3804}.fil0{fill:none}.fil1{fill:#232323}.fil4{fill:#a585db}.fil6{fill:#d88b0f}.fil7{fill:#e56467}.fil3{fill:#f1f7f5}.fil8{fill:#f3e977}.fil2{fill:#fea301}.fil5{fill:#ffc15d}</style></defs><g id="Layer_x0020_1"><metadata id="CorelCorpID_0Corel-Layer"/><g><path d="M29.88 131.81c0.24,-4.01 3.45,-8.69 6.74,-9.58 7.97,-2.18 6.9,4.25 9.18,6.37 3.85,-0.9 2.73,-6.09 8.14,-4.84 2.93,1.26 1.6,4.51 3.34,7.66 3.26,-0.48 2.87,-3.15 6.42,-1.01 2,1.2 3.29,2.86 3.5,6.22 -1.79,9.88 -10.84,13.37 -22.05,14.11 -10.91,-0.87 -18.28,-8.96 -16.17,-17.21 0.38,-1.5 0.17,-0.99 0.9,-1.72zm63.47 16.3c-4.26,-0.89 -8.05,-2.87 -10.34,-5.04 -1.01,-0.95 -6.37,-8.23 -2.99,-10.16 0.11,-2.38 1.22,-3.86 3.53,-4.43 3.88,-0.97 1.76,1.41 5.46,1.35 1.64,-2.65 0.55,-4.82 3.14,-7.63 6.42,-0.49 4.3,4.29 8.69,5.05 2.19,-2.88 -0.19,-3.83 4.05,-6.23 6.44,-2.31 10.38,3.54 11.72,8.48 5.99,12.56 -9.59,22.71 -23.26,18.61zm-76.47 -132.56c-0.31,-3.01 0.47,-5.7 2.49,-7.61 2.08,-2.64 5.82,-3.73 9.74,-1.6 2.86,1.54 4.2,4.55 4.89,8.68 1.52,9.04 0.42,14.88 4.55,22.79 6.36,6.33 5.07,4.73 14.59,3.19 11.56,-4.1 31.92,-2.93 43.5,0.88 3.11,0.95 5.23,-0.16 7.76,-0.32 1.44,-2.88 3.78,-4.08 3.93,-4.81 0.04,-0.18 0.19,-0.2 0.29,-0.29 2.33,-7.55 2.23,-10.68 3.26,-18.79 0.98,-7.67 1.79,-10.24 8.09,-12.31 6.1,-0.13 8.29,2.47 9.52,7.73 1.14,4.92 0.99,10.78 -0.67,15.18 -2.3,7.95 -9.97,15.58 -17.87,17.07 -1,0.19 -1.31,0.18 -2.21,0.44 -1.47,0.42 -0.89,0.27 -1.46,0.61 -0.77,3.43 20.74,27.27 24.75,37.39 3.31,4.11 9.12,13.49 9,20.53 -0.98,0.99 1.23,0.67 -1.55,0.85 -3.29,-0.44 -3.43,-1.41 -6.71,-0.73 -0.33,3.44 3.6,11.21 4.59,15.54 1.45,6.32 -2.62,9.55 -6.59,11.37 -2.39,2.58 -6.19,4.25 -9.73,4.97l-0.45 -6.22c-2.29,-5.11 -3.58,-9.2 -7.61,-11.56 -5.66,-3.34 -10.6,-0.98 -13.38,2.65 -5.14,-2.87 -10.57,-4.9 -12.54,3.56 -9.57,0.36 -9.81,4.06 -11.64,12.14l2.06 4.51 -8.06 0.21 0.76 -1.75c0.95,-8.26 -2.74,-14.18 -10.94,-13.41 -1.65,-7.24 -7.18,-8.24 -12.08,-3.94 -12.32,-10.09 -16.67,0.44 -20.27,5.47l-1.61 8.08c-5.28,-0.18 -11.24,-5.27 -14.18,-7.89 -2.63,-2.36 -3.19,-3.93 -2.11,-8.38 0.58,-2.36 1.45,-6.24 3.15,-8l1.57 -7.63c-3.98,0.03 -4.61,1.55 -8.32,0.54 -1.02,-6.72 8.24,-20.31 11.97,-26.09l5.7 -7.62c0.27,-1.53 0.59,-1.86 1.63,-3.38 2.74,-4.03 14.23,-17.83 14.52,-20.96 -1.6,-1.15 -0.19,-0.6 -2.7,-1.19 -7.35,-0.78 -12.64,-6.15 -15.76,-10.39 -2.48,-3.37 -7.36,-14.72 -3.87,-19.51zm11.97 40.59c-1.73,2.38 -3.4,4.63 -5.17,7.05 -3.53,4.81 -6.91,9.95 -10.11,15.01 -4.7,7.44 -21.11,30.86 -4.49,30.23 -1.97,6.64 -6.83,16.01 -1.15,21.54 5.79,5.64 10.34,8 17.76,10.04 2.32,5.74 3.47,7.57 7.52,10.13 8.62,5.45 17.76,5.04 26.96,0.45 9.43,-4.72 3.51,-5.46 11.37,-5.65 12.15,-0.3 6.14,-0.09 13.89,3.87 8.44,4.31 18.59,5.7 26.92,0.36 4.46,-2.86 4.83,-4.83 8.07,-9 1.23,-0.96 9.98,-1.86 17.98,-10.43 6.17,-6.61 0.64,-13.76 -1.08,-21.37 3.69,0.25 3.79,0.17 6.34,-1.08 4.77,-14.63 -25.95,-48.45 -31.63,-58.73 28.25,-6 27.39,-54.46 4.67,-45.71 -11.88,4.57 -5.55,20.91 -11.12,31.68 -3.73,7.23 -8.66,3.66 -14.21,2.51 -5.8,-1.21 -12.94,-1.96 -19.11,-1.93 -23.23,0.14 -28.04,9.34 -32.3,-2.3 -4.08,-11.16 0.52,-27.21 -11.66,-30.41 -22.36,-5.87 -20.86,40.29 6,46.29 -1,2.18 -3.88,5.29 -5.45,7.45z" class="fil0 str0"/><path id="_1" d="M29.88 131.81c0.24,-4.01 3.45,-8.69 6.74,-9.58 7.97,-2.18 6.9,4.25 9.18,6.37 3.85,-0.9 2.73,-6.09 8.14,-4.84 2.93,1.26 1.6,4.51 3.34,7.66 3.26,-0.48 2.87,-3.15 6.42,-1.01 2,1.2 3.29,2.86 3.5,6.22 -1.79,9.88 -10.84,13.37 -22.05,14.11 -10.91,-0.87 -18.28,-8.96 -16.17,-17.21 0.38,-1.5 0.17,-0.99 0.9,-1.72zm63.47 16.3c-4.26,-0.89 -8.05,-2.87 -10.34,-5.04 -1.01,-0.95 -6.37,-8.23 -2.99,-10.16 0.11,-2.38 1.22,-3.86 3.53,-4.43 3.88,-0.97 1.76,1.41 5.46,1.35 1.64,-2.65 0.55,-4.82 3.14,-7.63 6.42,-0.49 4.3,4.29 8.69,5.05 2.19,-2.88 -0.19,-3.83 4.05,-6.23 6.44,-2.31 10.38,3.54 11.72,8.48 5.99,12.56 -9.59,22.71 -23.26,18.61zm-76.47 -132.56c-0.31,-3.01 0.47,-5.7 2.49,-7.61 2.08,-2.64 5.82,-3.73 9.74,-1.6 2.86,1.54 4.2,4.55 4.89,8.68 1.52,9.04 0.42,14.88 4.55,22.79 6.36,6.33 5.07,4.73 14.59,3.19 11.56,-4.1 31.92,-2.93 43.5,0.88 3.11,0.95 5.23,-0.16 7.76,-0.32 1.44,-2.88 3.78,-4.08 3.93,-4.81 0.04,-0.18 0.19,-0.2 0.29,-0.29 2.33,-7.55 2.23,-10.68 3.26,-18.79 0.98,-7.67 1.79,-10.24 8.09,-12.31 6.1,-0.13 8.29,2.47 9.52,7.73 1.14,4.92 0.99,10.78 -0.67,15.18 -2.3,7.95 -9.97,15.58 -17.87,17.07 -1,0.19 -1.31,0.18 -2.21,0.44 -1.47,0.42 -0.89,0.27 -1.46,0.61 -0.77,3.43 20.74,27.27 24.75,37.39 3.31,4.11 9.12,13.49 9,20.53 -0.98,0.99 1.23,0.67 -1.55,0.85 -3.29,-0.44 -3.43,-1.41 -6.71,-0.73 -0.33,3.44 3.6,11.21 4.59,15.54 1.45,6.32 -2.62,9.55 -6.59,11.37 -2.39,2.58 -6.19,4.25 -9.73,4.97l-0.45 -6.22c-2.29,-5.11 -3.58,-9.2 -7.61,-11.56 -5.66,-3.34 -10.6,-0.98 -13.38,2.65 -5.14,-2.87 -10.57,-4.9 -12.54,3.56 -9.57,0.36 -9.81,4.06 -11.64,12.14l2.06 4.51 -8.06 0.21 0.76 -1.75c0.95,-8.26 -2.74,-14.18 -10.94,-13.41 -1.65,-7.24 -7.18,-8.24 -12.08,-3.94 -12.32,-10.09 -16.67,0.44 -20.27,5.47l-1.61 8.08c-5.28,-0.18 -11.24,-5.27 -14.18,-7.89 -2.63,-2.36 -3.19,-3.93 -2.11,-8.38 0.58,-2.36 1.45,-6.24 3.15,-8l1.57 -7.63c-3.98,0.03 -4.61,1.55 -8.32,0.54 -1.02,-6.72 8.24,-20.31 11.97,-26.09l5.7 -7.62c0.27,-1.53 0.59,-1.86 1.63,-3.38 2.74,-4.03 14.23,-17.83 14.52,-20.96 -1.6,-1.15 -0.19,-0.6 -2.7,-1.19 -7.35,-0.78 -12.64,-6.15 -15.76,-10.39 -2.48,-3.37 -7.36,-14.72 -3.87,-19.51zm11.97 40.59c-1.73,2.38 -3.4,4.63 -5.17,7.05 -3.53,4.81 -6.91,9.95 -10.11,15.01 -4.7,7.44 -21.11,30.86 -4.49,30.23 -1.97,6.64 -6.83,16.01 -1.15,21.54 5.79,5.64 10.34,8 17.76,10.04 2.32,5.74 3.47,7.57 7.52,10.13 8.62,5.45 17.76,5.04 26.96,0.45 9.43,-4.72 3.51,-5.46 11.37,-5.65 12.15,-0.3 6.14,-0.09 13.89,3.87 8.44,4.31 18.59,5.7 26.92,0.36 4.46,-2.86 4.83,-4.83 8.07,-9 1.23,-0.96 9.98,-1.86 17.98,-10.43 6.17,-6.61 0.64,-13.76 -1.08,-21.37 3.69,0.25 3.79,0.17 6.34,-1.08 4.77,-14.63 -25.95,-48.45 -31.63,-58.73 28.25,-6 27.39,-54.46 4.67,-45.71 -11.88,4.57 -5.55,20.91 -11.12,31.68 -3.73,7.23 -8.66,3.66 -14.21,2.51 -5.8,-1.21 -12.94,-1.96 -19.11,-1.93 -23.23,0.14 -28.04,9.34 -32.3,-2.3 -4.08,-11.16 0.52,-27.21 -11.66,-30.41 -22.36,-5.87 -20.86,40.29 6,46.29 -1,2.18 -3.88,5.29 -5.45,7.45z" class="fil1"/></g><path d="M29.18 108.37c3.67,0.27 4.84,1.52 3.34,4.95 -5.65,12.89 -8.92,6 -7.06,1.95 0.99,-2.17 2.64,-5.67 3.72,-6.9zm-8.23 10.78c-8.69,-0.4 -0.01,-11.58 1.36,-11.93 7.08,-1.79 -0.32,10.85 -1.36,11.93zm90.12 -10.1c-0.1,-3.28 3.73,-4.61 6.14,0.53 0.18,0.37 8.17,13.53 0.73,11.59 -2.61,-0.67 -6.87,-12.12 -6.87,-12.12zm8.19 -2.03c-0.01,-1.67 3.12,-5.84 6.31,0.99 1.22,2.63 7.5,11.91 1.05,11.35 -3.18,-0.28 -7.36,-12.34 -7.36,-12.34zm-47 -41.91c-1.41,-2.26 -1.53,-8.68 0,-11.01 3.49,0.16 2.56,1.39 2.56,5.43 0.01,7.63 -0.01,5.48 -2.56,5.58zm-7.12 -0.49c-1.15,-3.11 0.4,-3.22 1.01,-6.52 0.44,-2.35 -0.24,-4.27 2.63,-3.45 1.76,1.23 0.94,10.7 -3.64,9.97zm15.62 -4.08c0.62,1.58 1.85,5.5 -1.35,4.12 -1.05,-0.45 -5.92,-9.56 -0.49,-10.3 1.18,1.7 0.76,3.45 1.84,6.18zm9.1 28.18l-2.89 1.27c-2.28,2.46 -4.57,2.62 -5.98,4.05 -1.08,1.11 -0.69,1.81 -2.17,3.29 -1,0.99 -1.69,0.95 -2.89,2.07 1.16,2.17 3.91,4.39 6.63,5.47 5.49,2.17 5.77,0.28 7.01,-3.96 -1.82,-2.64 -3.38,-0.68 -2.77,-4.45 1.95,-0.57 8.96,1.69 9.92,3.1 -0.76,2.63 -0.46,1.76 -3.86,2.23 -1.3,5.31 -3.05,7.59 -9.15,7.13 -2.98,14.13 -15.95,16.67 -19.65,-0.01 -5.49,0.04 -6.64,-2.13 -8.38,-6.37 -2.76,-0.21 -2.24,0.59 -4.39,-0.95 0.27,-3.34 0.43,-1.64 3.53,-3.19 2.29,-1.14 2.86,-3.12 4.89,-1.97 3.43,1.95 -4.87,2.76 1.78,9.02 4.16,-0.43 8.58,-3.34 10.12,-5.89 -1.2,-0.85 -2.13,-0.93 -3.45,-2 -2.05,-1.66 -1.15,-1.78 -2.27,-3.16 -1.02,-1.25 -4.43,-2.59 -6.36,-4.55l-3.09 -1.15c-2.52,1.3 -6.93,7.4 -15.82,5.84 -18.99,-3.32 -17.61,-35.1 2.02,-39.21 -3.68,-5.55 9.35,-9.03 10.62,-8.95 3.37,0.23 1.75,0.16 2.76,1.15 1.03,2.74 -2.5,1.87 -5.59,3.03l-5.87 3.93c-0.09,0.09 -0.26,0.27 -0.37,0.42 11.81,-0.04 16.45,7.07 17.94,17.98 9.4,-1.55 11.87,-1.43 21.46,-0.33 1.51,-17.28 10.96,-16.4 15.85,-18.97 -2.08,-1.31 -4.23,-3.05 -6.46,-3.93 -3.84,-1.52 -5.82,0.21 -6.22,-3.49 3.92,-2.41 16.71,2.64 13.69,8.02 20.39,1.53 24.94,33.29 6.19,39.07 -9.14,2.81 -14.06,-3.5 -16.78,-4.54zm18.76 -52.26c1.71,2 2.33,3.02 1.32,6.16l-5.54 -1.06c-2.53,0.16 -4.65,1.27 -7.76,0.32 -3.54,3 -37.28,0.45 -43.5,-0.88 -9.52,1.54 -8.23,3.14 -14.59,-3.19 -14.52,-1.69 -3.15,-27.04 -19.18,-29.87 -2.02,1.91 -2.8,4.6 -2.49,7.61 0.61,5.31 -0.19,5.9 2.38,10.14 12.39,20.44 15.06,12.96 17.25,19.76 2.51,0.59 1.1,0.04 2.7,1.19 -0.29,3.13 -11.78,16.93 -14.52,20.96 -1.04,1.52 -1.36,1.85 -1.63,3.38 -1.26,4.65 -4.28,10.46 -6.12,15.33 -2.06,5.46 -4.06,10.48 -5.43,16.64l1.65 0.66c0.14,0.1 0.35,0.38 0.55,0.54l-1.57 7.63c-0.06,3.34 0.66,10.31 2.27,13.06 1.74,2.97 8.18,3.29 12.48,3.13 3.6,-5.03 7.95,-15.56 20.27,-5.47 4.9,-4.3 10.43,-3.3 12.08,3.94 8.2,-0.77 11.89,5.15 10.94,13.41 2.3,-0.72 4.4,-1.2 5.24,-2.97 1.83,-8.08 2.07,-11.78 11.64,-12.14 1.97,-8.46 7.4,-6.43 12.54,-3.56 2.78,-3.63 7.72,-5.99 13.38,-2.65 4.03,2.36 5.32,6.45 7.61,11.56 2.99,1.47 6.79,1.06 10.18,1.25 3.97,-1.82 8.04,-5.05 6.59,-11.37 -0.99,-4.33 -4.92,-12.1 -4.59,-15.54 3.28,-0.68 3.42,0.29 6.71,0.73 -2.11,-5.38 -6.73,-15.6 -7.45,-21.38 -4.01,-10.12 -25.52,-33.96 -24.75,-37.39 0.57,-0.34 -0.01,-0.19 1.46,-0.61 0.9,-0.26 1.21,-0.25 2.21,-0.44 7.9,-1.49 15.57,-9.12 17.87,-17.07 -1.51,-4.11 -2.1,-8.63 -2.58,-13.17 -0.27,-2.56 -0.21,-4.47 -1.7,-6.47 -1.99,-2.68 -2.35,-1.17 -4.57,-3.27 -6.3,2.07 -7.11,4.64 -8.09,12.31 -1.03,8.11 -0.93,11.24 -3.26,18.79z" class="fil2"/><path d="M80.02 132.91c0.07,3.73 0.1,3.19 2.08,4.97 3.03,2.73 2.82,3.26 7.53,6.71 4.45,3.27 2.01,0.3 3.72,3.52 13.67,4.1 29.25,-6.05 23.26,-18.61 -2.62,-0.87 -1.65,-0.77 -3.33,-2.45l-8.39 -6.03c-4.24,2.4 -1.86,3.35 -4.05,6.23 -4.39,-0.76 -2.27,-5.54 -8.69,-5.05 -2.59,2.81 -1.5,4.98 -3.14,7.63 -3.7,0.06 -1.58,-2.32 -5.46,-1.35 -2.31,0.57 -3.42,2.05 -3.53,4.43z" class="fil2"/><path d="M29.88 131.81c1.03,4.7 -0.25,3.99 5.3,10.92 1.8,2.26 2.14,2.62 4.52,4.33 1.29,0.93 1.31,0.92 2.47,1.59l2.98 2.09c11.21,-0.74 20.26,-4.23 22.05,-14.11 -2.93,-1.2 -7.68,-3.07 -9.92,-5.21 -1.74,-3.15 -0.41,-6.4 -3.34,-7.66 -5.41,-1.25 -4.29,3.94 -8.14,4.84 -2.28,-2.12 -1.21,-8.55 -9.18,-6.37 -3.29,0.89 -6.5,5.57 -6.74,9.58z" class="fil2"/><path d="M92.76 59.72c11.84,-7.18 23.33,5.05 22.36,17.46 -1.13,14.54 -17.15,17.67 -24,6.91 11.81,3.11 11.6,-14.47 8.41,-19.94 -2.28,-3.92 -3.8,-2.74 -6.77,-4.43zm-9.17 12.84c0.25,3.49 0.94,6.6 2.17,9.42 0.58,1.34 1.05,2.33 1.9,3.53 1.44,2.03 1.31,0.83 2.2,3.21 2.72,1.04 7.64,7.35 16.78,4.54 18.75,-5.78 14.2,-37.54 -6.19,-39.07 3.02,-5.38 -9.77,-10.43 -13.69,-8.02 0.4,3.7 2.38,1.97 6.22,3.49 2.23,0.88 4.38,2.62 6.46,3.93 -4.89,2.57 -14.34,1.69 -15.85,18.97z" class="fil1"/><path d="M55.32 83.78c-3.39,8.93 -22.04,12.58 -24.71,-4.56 -1.47,-9.48 5.13,-24.67 21.19,-19.5 -3.35,2.39 -3.95,1.03 -5.77,5.46 -3.37,8.26 -0.78,22.52 9.29,18.6zm1.12 4.92c3.54,-5.41 5.04,-7.72 5.69,-15.81 -1.49,-10.91 -6.13,-18.02 -17.94,-17.98 0.11,-0.15 0.28,-0.33 0.37,-0.42l5.87 -3.93c3.09,-1.16 6.62,-0.29 5.59,-3.03 -1.01,-0.99 0.61,-0.92 -2.76,-1.15 -1.27,-0.08 -14.3,3.4 -10.62,8.95 -19.63,4.11 -21.01,35.89 -2.02,39.21 8.89,1.56 13.3,-4.54 15.82,-5.84z" class="fil1"/><path d="M67.33 107.7c0.89,-0.9 0.69,-0.68 1.96,-1.62l5.25 -3.4c1.62,2.47 2.83,3.69 6.05,4.68 -2.12,10.05 -9.32,15.3 -13.26,0.34zm-7.8 -17.85c1.93,1.96 5.34,3.3 6.36,4.55 1.12,1.38 0.22,1.5 2.27,3.16 1.32,1.07 2.25,1.15 3.45,2 -1.54,2.55 -5.96,5.46 -10.12,5.89 -6.65,-6.26 1.65,-7.07 -1.78,-9.02 -2.03,-1.15 -2.6,0.83 -4.89,1.97 -3.1,1.55 -3.26,-0.15 -3.53,3.19 2.15,1.54 1.63,0.74 4.39,0.95 1.74,4.24 2.89,6.41 8.38,6.37 3.7,16.68 16.67,14.14 19.65,0.01 6.1,0.46 7.85,-1.82 9.15,-7.13 3.4,-0.47 3.1,0.4 3.86,-2.23 -0.96,-1.41 -7.97,-3.67 -9.92,-3.1 -0.61,3.77 0.95,1.81 2.77,4.45 -1.24,4.24 -1.52,6.13 -7.01,3.96 -2.72,-1.08 -5.47,-3.3 -6.63,-5.47 1.2,-1.12 1.89,-1.08 2.89,-2.07 1.48,-1.48 1.09,-2.18 2.17,-3.29 1.41,-1.43 3.7,-1.59 5.98,-4.05 0.92,-6.75 -7.57,-8.05 -14.04,-7.99 -6.34,0.05 -13.76,1.54 -13.4,7.85z" class="fil1"/><path d="M55.32 83.78c-10.07,3.92 -12.66,-10.34 -9.29,-18.6 1.82,-4.43 2.42,-3.07 5.77,-5.46 -16.06,-5.17 -22.66,10.02 -21.19,19.5 2.67,17.14 21.32,13.49 24.71,4.56z" class="fil3"/><path d="M99.53 64.15c3.19,5.47 3.4,23.05 -8.41,19.94 6.85,10.76 22.87,7.63 24,-6.91 0.97,-12.41 -10.52,-24.64 -22.36,-17.46 2.97,1.69 4.49,0.51 6.77,4.43z" class="fil3"/><path d="M62.13 72.89c-0.65,8.09 -2.15,10.4 -5.69,15.81l3.09 1.15c-0.36,-6.31 7.06,-7.8 13.4,-7.85 6.47,-0.06 14.96,1.24 14.04,7.99l2.89 -1.27c-0.89,-2.38 -0.76,-1.18 -2.2,-3.21 -0.85,-1.2 -1.32,-2.19 -1.9,-3.53 -1.23,-2.82 -1.92,-5.93 -2.17,-9.42 -9.59,-1.1 -12.06,-1.22 -21.46,0.33z" class="fil4"/><path d="M19.37 7.94c16.03,2.83 4.66,28.18 19.18,29.87 -4.13,-7.91 -3.03,-13.75 -4.55,-22.79 -0.69,-4.13 -2.03,-7.14 -4.89,-8.68 -3.92,-2.13 -7.66,-1.04 -9.74,1.6z" class="fil5"/><path d="M13.71 104.15c-0.2,-0.16 -0.41,-0.44 -0.55,-0.54l-1.65 -0.66c1.37,-6.16 3.37,-11.18 5.43,-16.64 1.84,-4.87 4.86,-10.68 6.12,-15.33l-5.7 7.62c-3.73,5.78 -12.99,19.37 -11.97,26.09 3.71,1.01 4.34,-0.51 8.32,-0.54z" class="fil6"/><path d="M26.89 127.97c-4.3,0.16 -10.74,-0.16 -12.48,-3.13 -1.61,-2.75 -2.33,-9.72 -2.27,-13.06 -1.7,1.76 -2.57,5.64 -3.15,8 -1.08,4.45 -0.52,6.02 2.11,8.38 2.94,2.62 8.9,7.71 14.18,7.89l1.61 -8.08z" class="fil6"/><path d="M53.14 41c6.22,1.33 39.96,3.88 43.5,0.88 -11.58,-3.81 -31.94,-4.98 -43.5,-0.88z" class="fil5"/><path d="M67.33 107.7c3.94,14.96 11.14,9.71 13.26,-0.34 -3.22,-0.99 -4.43,-2.21 -6.05,-4.68l-5.25 3.4c-1.27,0.94 -1.07,0.72 -1.96,1.62z" class="fil7"/><path d="M36.51 45.45c-2.19,-6.8 -4.86,0.68 -17.25,-19.76 -2.57,-4.24 -1.77,-4.83 -2.38,-10.14 -3.49,4.79 1.39,16.14 3.87,19.51 3.12,4.24 8.41,9.61 15.76,10.39z" class="fil6"/><path d="M126.62 119.36c6.45,0.56 0.17,-8.72 -1.05,-11.35 -3.19,-6.83 -6.32,-2.66 -6.31,-0.99 0,0 4.18,12.06 7.36,12.34z" class="fil8"/><path d="M117.94 121.17c7.44,1.94 -0.55,-11.22 -0.73,-11.59 -2.41,-5.14 -6.24,-3.81 -6.14,-0.53 0,0 4.26,11.45 6.87,12.12z" class="fil8"/><path d="M128.82 28.27c1.66,-4.4 1.81,-10.26 0.67,-15.18 -1.23,-5.26 -3.42,-7.86 -9.52,-7.73 2.22,2.1 2.58,0.59 4.57,3.27 1.49,2 1.43,3.91 1.7,6.47 0.48,4.54 1.07,9.06 2.58,13.17z" class="fil5"/><path d="M45.15 150.74l-2.98 -2.09c-1.16,-0.67 -1.18,-0.66 -2.47,-1.59 -2.38,-1.71 -2.72,-2.07 -4.52,-4.33 -5.55,-6.93 -4.27,-6.22 -5.3,-10.92 -0.73,0.73 -0.52,0.22 -0.9,1.72 -2.11,8.25 5.26,16.34 16.17,17.21z" class="fil6"/><path d="M20.95 119.15c1.04,-1.08 8.44,-13.72 1.36,-11.93 -1.37,0.35 -10.05,11.53 -1.36,11.93z" class="fil8"/><path d="M29.18 108.37c-1.08,1.23 -2.73,4.73 -3.72,6.9 -1.86,4.05 1.41,10.94 7.06,-1.95 1.5,-3.43 0.33,-4.68 -3.34,-4.95z" class="fil8"/><path d="M139.48 105.16c2.78,-0.18 0.57,0.14 1.55,-0.85 0.12,-7.04 -5.69,-16.42 -9,-20.53 0.72,5.78 5.34,16 7.45,21.38z" class="fil5"/><path d="M93.35 148.11c-1.71,-3.22 0.73,-0.25 -3.72,-3.52 -4.71,-3.45 -4.5,-3.98 -7.53,-6.71 -1.98,-1.78 -2.01,-1.24 -2.08,-4.97 -3.38,1.93 1.98,9.21 2.99,10.16 2.29,2.17 6.08,4.15 10.34,5.04z" class="fil6"/><path d="M72.26 65.11c2.55,-0.1 2.57,2.05 2.56,-5.58 0,-4.04 0.93,-5.27 -2.56,-5.43 -1.53,2.33 -1.41,8.75 0,11.01z" class="fil1"/><path d="M130.77 131.34c-3.39,-0.19 -7.19,0.22 -10.18,-1.25l0.45 6.22c3.54,-0.72 7.34,-2.39 9.73,-4.97z" class="fil6"/><path d="M116.61 129.5c-1.34,-4.94 -5.28,-10.79 -11.72,-8.48l8.39 6.03c1.68,1.68 0.71,1.58 3.33,2.45z" class="fil5"/><path d="M65.14 64.62c4.58,0.73 5.4,-8.74 3.64,-9.97 -2.87,-0.82 -2.19,1.1 -2.63,3.45 -0.61,3.3 -2.16,3.41 -1.01,6.52z" class="fil1"/><path d="M57.28 131.42c2.24,2.14 6.99,4.01 9.92,5.21 -0.21,-3.36 -1.5,-5.02 -3.5,-6.22 -3.55,-2.14 -3.16,0.53 -6.42,1.01z" class="fil5"/><path d="M78.92 54.36c-5.43,0.74 -0.56,9.85 0.49,10.3 3.2,1.38 1.97,-2.54 1.35,-4.12 -1.08,-2.73 -0.66,-4.48 -1.84,-6.18z" class="fil1"/><path d="M104.4 41.56l5.54 1.06c1.01,-3.14 0.39,-4.16 -1.32,-6.16 -0.1,0.09 -0.25,0.11 -0.29,0.29 -0.15,0.73 -2.49,1.93 -3.93,4.81z" class="fil6"/><path d="M70.18 139.85l-0.76 1.75 8.06 -0.21 -2.06 -4.51c-0.84,1.77 -2.94,2.25 -5.24,2.97z" class="fil6"/></g></svg>